<?xml version="1.0" standalone="no"?><!DOCTYPE svg PUBLIC "-//W3C//DTD SVG 1.1//EN" "http://www.w3.org/Graphics/SVG/1.1/DTD/svg11.dtd"><svg t="1720073863480" class="icon" viewBox="0 0 1024 1024" version="1.1" xmlns="http://www.w3.org/2000/svg" p-id="14298" width="36" height="36" xmlns:xlink="http://www.w3.org/1999/xlink"><path d="M87.424 553.664C123.584 398.784 251.648 276.032 384 192l48 48c-80 50.752-173.248 160.128-199.808 214.976 15.68-4.032 32.128-6.208 49.088-6.208 107.072 0 193.92 85.76 193.92 191.616C475.136 746.24 389.632 832 272 832c-114.112 0-221.696-119.68-184.64-278.336zM556.288 553.664C592.448 398.784 731.648 276.032 864 192l48 48c-80 50.752-184.448 160.128-210.944 214.976 15.68-4.032 32.128-6.208 49.088-6.208 107.072 0 193.856 85.76 193.856 191.616 0 105.856-85.44 191.616-203.072 191.616-114.112 0-221.696-119.68-184.64-278.336z" p-id="14299" fill="#eeeeee"></path></svg>